# Blender v3.2.1 OBJ File: 'hat.blend'
# www.blender.org
mtllib hat.mtl
o Cube
v 0.000000 0.126545 -0.500000
v -0.293893 0.126545 -0.404509
v -0.475528 0.126545 -0.154508
v -0.475528 0.126545 0.154509
v -0.293893 0.126545 0.404509
v 0.000000 0.126545 0.500000
v 0.293893 0.126545 0.404508
v 0.475528 0.126545 0.154509
v 0.475528 0.126545 -0.154509
v 0.293893 0.126545 -0.404508
v 0.000000 0.126545 -0.363106
v -0.213428 0.126545 -0.293759
v -0.345334 0.126545 -0.112206
v -0.345334 0.126545 0.112206
v -0.213428 0.126545 0.293759
v 0.000000 0.126545 0.363106
v 0.213428 0.126545 0.293759
v 0.345334 0.126545 0.112206
v 0.345334 0.126545 -0.112206
v 0.213428 0.126545 -0.293759
v -0.000000 0.536815 -0.335300
v -0.197084 0.536815 -0.271263
v -0.318889 0.536815 -0.103613
v -0.318889 0.536815 0.103613
v -0.197084 0.536815 0.271263
v 0.000000 0.536815 0.335300
v 0.197084 0.536815 0.271263
v 0.318889 0.536815 0.103613
v 0.318889 0.536815 -0.103613
v 0.197084 0.536815 -0.271263
v -0.220857 0.510809 -0.303984
v 0.000000 0.510809 -0.375744
v -0.357354 0.510809 -0.116111
v -0.357354 0.510809 0.116111
v -0.220857 0.510809 0.303984
v 0.000000 0.510809 0.375744
v 0.220857 0.510809 0.303984
v 0.357354 0.510809 0.116111
v 0.357354 0.510809 -0.116111
v 0.220857 0.510809 -0.303984
v 0.000000 0.004614 -0.500000
v -0.293893 0.004614 -0.404509
v -0.475528 0.004614 -0.154508
v -0.475528 0.004614 0.154509
v -0.293893 0.004614 0.404509
v 0.000000 0.004614 0.500000
v 0.293893 0.004614 0.404508
v 0.475528 0.004614 0.154509
v 0.475528 0.004614 -0.154509
v 0.293893 0.004614 -0.404508
v 0.215673 0.225500 -0.296848
v 0.348966 0.225500 -0.113386
v 0.215673 0.225500 0.296848
v 0.000000 0.225500 0.366925
v -0.348966 0.225500 0.113386
v -0.348966 0.225500 -0.113386
v 0.000000 0.225500 -0.366925
v 0.348966 0.225500 0.113386
v -0.215673 0.225500 0.296848
v -0.215673 0.225500 -0.296848
vt 0.000000 0.000000
vt 0.000000 0.000000
vt 0.000000 0.000000
vt 0.000000 0.000000
vt 0.000000 0.000000
vt 0.000000 0.000000
vt 0.000000 0.000000
vt 0.000000 0.000000
vt 0.000000 0.000000
vt 0.000000 0.000000
vt 0.000000 0.000000
vt 0.000000 0.000000
vt 0.000000 0.000000
vt 0.000000 0.000000
vt 0.000000 0.000000
vt 0.000000 0.000000
vt 0.000000 0.000000
vt 0.000000 0.000000
vt 0.000000 0.000000
vt 0.000000 0.000000
vt 0.000000 0.000000
vt 0.000000 0.000000
vt 0.000000 0.000000
vt 0.000000 0.000000
vt 0.000000 0.000000
vt 0.000000 0.000000
vt 0.000000 0.000000
vt 0.000000 0.000000
vt 0.000000 0.000000
vt 0.000000 0.000000
vt 0.000000 0.000000
vt 0.000000 0.000000
vt 0.000000 0.000000
vt 0.000000 0.000000
vt 0.000000 0.000000
vt 0.000000 0.000000
vt 0.000000 0.000000
vt 0.000000 0.000000
vt 0.000000 0.000000
vt 0.000000 0.000000
vt 0.000000 0.000000
vt 0.000000 0.000000
vt 0.000000 0.000000
vt 0.000000 0.000000
vt 0.000000 0.000000
vt 0.000000 0.000000
vt 0.000000 0.000000
vt 0.000000 0.000000
vt 0.000000 0.000000
vt 0.000000 0.000000
vt 0.000000 0.000000
vt 0.000000 0.000000
vt 0.000000 0.000000
vt 0.000000 0.000000
vt 0.000000 0.000000
vt 0.000000 0.000000
vt 0.000000 0.000000
vt 0.000000 0.000000
vt 0.000000 0.000000
vt 0.000000 0.000000
vn 0.0000 1.0000 0.0000
vn 0.8087 -0.0294 -0.5875
vn 0.3089 -0.0294 0.9506
vn -0.9996 -0.0294 0.0000
vn 0.3089 -0.0294 -0.9506
vn 0.8087 -0.0294 0.5875
vn -0.8087 -0.0294 0.5875
vn -0.3089 -0.0294 -0.9506
vn 0.9996 -0.0294 0.0000
vn -0.3089 -0.0294 0.9506
vn -0.8087 -0.0294 -0.5875
vn -0.1731 0.8284 -0.5327
vn -0.4531 0.8284 -0.3292
vn -0.5601 0.8284 0.0000
vn -0.4531 0.8284 0.3292
vn -0.1731 0.8284 0.5327
vn 0.1731 0.8284 0.5327
vn 0.4531 0.8284 0.3292
vn 0.5601 0.8284 0.0000
vn 0.4531 0.8284 -0.3292
vn 0.1731 0.8284 -0.5327
vn -0.3090 0.0000 -0.9511
vn 1.0000 0.0000 0.0000
vn -0.3090 0.0000 0.9511
vn -0.8090 0.0000 -0.5878
vn 0.8090 0.0000 -0.5878
vn 0.3090 0.0000 0.9511
vn -1.0000 0.0000 0.0000
vn 0.3090 0.0000 -0.9511
vn 0.8090 0.0000 0.5878
vn -0.8090 0.0000 0.5878
vn -0.8085 -0.0367 -0.5874
vn -0.3088 -0.0367 0.9504
vn 0.9993 -0.0367 0.0000
vn -0.3088 -0.0367 -0.9504
vn -0.8085 -0.0367 0.5874
vn 0.8085 -0.0367 0.5874
vn 0.3088 -0.0367 -0.9504
vn -0.9993 -0.0367 0.0000
vn 0.3088 -0.0367 0.9504
vn 0.8085 -0.0367 -0.5874
usemtl Base
s off
f 3/1/1 13/2/1 12/3/1 2/4/1
f 10/5/1 20/6/1 19/7/1 9/8/1
f 7/9/1 17/10/1 16/11/1 6/12/1
f 4/13/1 14/14/1 13/2/1 3/1/1
f 1/15/1 11/16/1 20/6/1 10/5/1
f 8/17/1 18/18/1 17/10/1 7/9/1
f 5/19/1 15/20/1 14/14/1 4/13/1
f 2/4/1 12/3/1 11/16/1 1/15/1
f 9/8/1 19/7/1 18/18/1 8/17/1
f 6/12/1 16/11/1 15/20/1 5/19/1
f 52/21/2 51/22/2 40/23/2 39/24/2
f 54/25/3 53/26/3 37/27/3 36/28/3
f 56/29/4 55/30/4 34/31/4 33/32/4
f 51/22/5 57/33/5 32/34/5 40/23/5
f 53/26/6 58/35/6 38/36/6 37/27/6
f 55/30/7 59/37/7 35/38/7 34/31/7
f 57/33/8 60/39/8 31/40/8 32/34/8
f 58/35/9 52/21/9 39/24/9 38/36/9
f 59/37/10 54/25/10 36/28/10 35/38/10
f 60/39/11 56/29/11 33/32/11 31/40/11
f 22/41/1 23/42/1 24/43/1 25/44/1 26/45/1 27/46/1 28/47/1 29/48/1 30/49/1 21/50/1
usemtl Material
f 22/41/12 21/50/12 32/34/12 31/40/12
f 23/42/13 22/41/13 31/40/13 33/32/13
f 24/43/14 23/42/14 33/32/14 34/31/14
f 25/44/15 24/43/15 34/31/15 35/38/15
f 26/45/16 25/44/16 35/38/16 36/28/16
f 27/46/17 26/45/17 36/28/17 37/27/17
f 28/47/18 27/46/18 37/27/18 38/36/18
f 29/48/19 28/47/19 38/36/19 39/24/19
f 30/49/20 29/48/20 39/24/20 40/23/20
f 21/50/21 30/49/21 40/23/21 32/34/21
f 2/4/22 1/15/22 41/51/22 42/52/22
f 9/8/23 8/17/23 48/53/23 49/54/23
f 6/12/24 5/19/24 45/55/24 46/56/24
f 3/1/25 2/4/25 42/52/25 43/57/25
f 10/5/26 9/8/26 49/54/26 50/58/26
f 7/9/27 6/12/27 46/56/27 47/59/27
f 4/13/28 3/1/28 43/57/28 44/60/28
f 1/15/29 10/5/29 50/58/29 41/51/29
f 8/17/30 7/9/30 47/59/30 48/53/30
f 5/19/31 4/13/31 44/60/31 45/55/31
f 12/3/32 13/2/32 56/29/32 60/39/32
f 15/20/33 16/11/33 54/25/33 59/37/33
f 18/18/34 19/7/34 52/21/34 58/35/34
f 11/16/35 12/3/35 60/39/35 57/33/35
f 14/14/36 15/20/36 59/37/36 55/30/36
f 17/10/37 18/18/37 58/35/37 53/26/37
f 20/6/38 11/16/38 57/33/38 51/22/38
f 13/2/39 14/14/39 55/30/39 56/29/39
f 16/11/40 17/10/40 53/26/40 54/25/40
f 19/7/41 20/6/41 51/22/41 52/21/41
