# Blender v3.2.1 OBJ File: 'hat.blend'
# www.blender.org
mtllib hat.mtl
o Cube
v 0.000000 0.126545 -0.500000
v -0.293893 0.126545 -0.404509
v -0.475528 0.126545 -0.154508
v -0.475528 0.126545 0.154509
v -0.293893 0.126545 0.404509
v 0.000000 0.126545 0.500000
v 0.293893 0.126545 0.404508
v 0.475528 0.126545 0.154509
v 0.475528 0.126545 -0.154509
v 0.293893 0.126545 -0.404508
v 0.000000 0.126545 -0.363106
v -0.213428 0.126545 -0.293759
v -0.345334 0.126545 -0.112206
v -0.345334 0.126545 0.112206
v -0.213428 0.126545 0.293759
v 0.000000 0.126545 0.363106
v 0.213428 0.126545 0.293759
v 0.345334 0.126545 0.112206
v 0.345334 0.126545 -0.112206
v 0.213428 0.126545 -0.293759
v -0.000000 0.536815 -0.335300
v -0.197084 0.536815 -0.271263
v -0.318889 0.536815 -0.103613
v -0.318889 0.536815 0.103613
v -0.197084 0.536815 0.271263
v 0.000000 0.536815 0.335300
v 0.197084 0.536815 0.271263
v 0.318889 0.536815 0.103613
v 0.318889 0.536815 -0.103613
v 0.197084 0.536815 -0.271263
v -0.220857 0.510809 -0.303984
v 0.000000 0.510809 -0.375744
v -0.357354 0.510809 -0.116111
v -0.357354 0.510809 0.116111
v -0.220857 0.510809 0.303984
v 0.000000 0.510809 0.375744
v 0.220857 0.510809 0.303984
v 0.357354 0.510809 0.116111
v 0.357354 0.510809 -0.116111
v 0.220857 0.510809 -0.303984
v 0.000000 0.004614 -0.500000
v -0.293893 0.004614 -0.404509
v -0.475528 0.004614 -0.154508
v -0.475528 0.004614 0.154509
v -0.293893 0.004614 0.404509
v 0.000000 0.004614 0.500000
v 0.293893 0.004614 0.404508
v 0.475528 0.004614 0.154509
v 0.475528 0.004614 -0.154509
v 0.293893 0.004614 -0.404508
v 0.215673 0.225500 -0.296848
v 0.348966 0.225500 -0.113386
v 0.215673 0.225500 0.296848
v 0.000000 0.225500 0.366925
v -0.348966 0.225500 0.113386
v -0.348966 0.225500 -0.113386
v 0.000000 0.225500 -0.366925
v 0.348966 0.225500 0.113386
v -0.215673 0.225500 0.296848
v -0.215673 0.225500 -0.296848
vt 0.000000 0.000000
vt 0.000000 0.000000
vt 0.000000 0.000000
vt 0.000000 0.000000
vt 0.000000 0.000000
vt 0.000000 0.000000
vt 0.000000 0.000000
vt 0.000000 0.000000
vt 0.000000 0.000000
vt 0.000000 0.000000
vt 0.000000 0.000000
vt 0.000000 0.000000
vt 0.000000 0.000000
vt 0.000000 0.000000
vt 0.000000 0.000000
vt 0.000000 0.000000
vt 0.000000 0.000000
vt 0.000000 0.000000
vt 0.000000 0.000000
vt 0.000000 0.000000
vt 0.000000 0.000000
vt 0.000000 0.000000
vt 0.000000 0.000000
vt 0.000000 0.000000
vt 0.000000 0.000000
vt 0.000000 0.000000
vt 0.000000 0.000000
vt 0.000000 0.000000
vt 0.000000 0.000000
vt 0.000000 0.000000
vt 0.000000 0.000000
vt 0.000000 0.000000
vt 0.000000 0.000000
vt 0.000000 0.000000
vt 0.000000 0.000000
vt 0.000000 0.000000
vt 0.000000 0.000000
vt 0.000000 0.000000
vt 0.000000 0.000000
vt 0.000000 0.000000
vt 0.000000 0.000000
vt 0.000000 0.000000
vt 0.000000 0.000000
vt 0.000000 0.000000
vt 0.000000 0.000000
vt 0.000000 0.000000
vt 0.000000 0.000000
vt 0.000000 0.000000
vt 0.000000 0.000000
vt 0.000000 0.000000
vt 0.000000 0.000000
vt 0.000000 0.000000
vt 0.000000 0.000000
vt 0.000000 0.000000
vt 0.000000 0.000000
vt 0.000000 0.000000
vt 0.000000 0.000000
vt 0.000000 0.000000
vt 0.000000 0.000000
vt 0.000000 0.000000
vn 0.0000 1.0000 0.0000
vn 0.9505 -0.0347 -0.3088
vn 0.5874 -0.0347 -0.8085
vn 0.5308 0.4296 -0.7306
vn 0.8588 0.4296 -0.2790
vn 0.0000 -0.0347 0.9994
vn 0.5874 -0.0347 0.8085
vn 0.5308 0.4296 0.7306
vn 0.0000 0.4296 0.9030
vn -0.9505 -0.0347 -0.3088
vn -0.9505 -0.0347 0.3088
vn -0.8588 0.4296 0.2790
vn -0.8588 0.4296 -0.2790
vn 0.0000 -0.0347 -0.9994
vn 0.0000 0.4296 -0.9030
vn 0.9505 -0.0347 0.3088
vn 0.8588 0.4296 0.2790
vn -0.5874 -0.0347 0.8085
vn -0.5308 0.4296 0.7306
vn -0.5874 -0.0347 -0.8085
vn -0.5308 0.4296 -0.7306
vn -0.1951 0.9433 -0.2686
vn -0.3157 0.9433 -0.1026
vn -0.3157 0.9433 0.1026
vn -0.1951 0.9433 0.2686
vn 0.0000 0.9433 0.3320
vn 0.1951 0.9433 0.2686
vn 0.3157 0.9433 0.1026
vn 0.3157 0.9433 -0.1026
vn 0.1951 0.9433 -0.2686
vn 0.0000 0.9433 -0.3320
vn -0.5878 0.0000 -0.8090
vn 0.0000 0.0000 -1.0000
vn 0.9511 0.0000 -0.3090
vn 0.9511 0.0000 0.3090
vn 0.0000 0.0000 1.0000
vn -0.5878 0.0000 0.8090
vn -0.9511 0.0000 -0.3090
vn 0.5878 0.0000 -0.8090
vn 0.5878 0.0000 0.8090
vn -0.9511 0.0000 0.3090
vn -0.5873 -0.0386 -0.8084
vn -0.9503 -0.0386 -0.3088
vn -0.5873 -0.0386 0.8084
vn 0.0000 -0.0386 0.9993
vn 0.9503 -0.0386 0.3088
vn 0.9503 -0.0386 -0.3088
vn -0.0000 -0.0386 -0.9993
vn -0.9503 -0.0386 0.3088
vn 0.5873 -0.0386 0.8084
vn 0.5873 -0.0386 -0.8084
usemtl Base
s 1
f 3/1/1 13/2/1 12/3/1 2/4/1
f 10/5/1 20/6/1 19/7/1 9/8/1
f 7/9/1 17/10/1 16/11/1 6/12/1
f 4/13/1 14/14/1 13/2/1 3/1/1
f 1/15/1 11/16/1 20/6/1 10/5/1
f 8/17/1 18/18/1 17/10/1 7/9/1
f 5/19/1 15/20/1 14/14/1 4/13/1
f 2/4/1 12/3/1 11/16/1 1/15/1
f 9/8/1 19/7/1 18/18/1 8/17/1
f 6/12/1 16/11/1 15/20/1 5/19/1
f 52/21/2 51/22/3 40/23/4 39/24/5
f 54/25/6 53/26/7 37/27/8 36/28/9
f 56/29/10 55/30/11 34/31/12 33/32/13
f 51/22/3 57/33/14 32/34/15 40/23/4
f 53/26/7 58/35/16 38/36/17 37/27/8
f 55/30/11 59/37/18 35/38/19 34/31/12
f 57/33/14 60/39/20 31/40/21 32/34/15
f 58/35/16 52/21/2 39/24/5 38/36/17
f 59/37/18 54/25/6 36/28/9 35/38/19
f 60/39/20 56/29/10 33/32/13 31/40/21
f 22/41/22 23/42/23 24/43/24 25/44/25 26/45/26 27/46/27 28/47/28 29/48/29 30/49/30 21/50/31
usemtl Material
f 22/41/22 21/50/31 32/34/15 31/40/21
f 23/42/23 22/41/22 31/40/21 33/32/13
f 24/43/24 23/42/23 33/32/13 34/31/12
f 25/44/25 24/43/24 34/31/12 35/38/19
f 26/45/26 25/44/25 35/38/19 36/28/9
f 27/46/27 26/45/26 36/28/9 37/27/8
f 28/47/28 27/46/27 37/27/8 38/36/17
f 29/48/29 28/47/28 38/36/17 39/24/5
f 30/49/30 29/48/29 39/24/5 40/23/4
f 21/50/31 30/49/30 40/23/4 32/34/15
f 2/4/32 1/15/33 41/51/33 42/52/32
f 9/8/34 8/17/35 48/53/35 49/54/34
f 6/12/36 5/19/37 45/55/37 46/56/36
f 3/1/38 2/4/32 42/52/32 43/57/38
f 10/5/39 9/8/34 49/54/34 50/58/39
f 7/9/40 6/12/36 46/56/36 47/59/40
f 4/13/41 3/1/38 43/57/38 44/60/41
f 1/15/33 10/5/39 50/58/39 41/51/33
f 8/17/35 7/9/40 47/59/40 48/53/35
f 5/19/37 4/13/41 44/60/41 45/55/37
f 12/3/42 13/2/43 56/29/10 60/39/20
f 15/20/44 16/11/45 54/25/6 59/37/18
f 18/18/46 19/7/47 52/21/2 58/35/16
f 11/16/48 12/3/42 60/39/20 57/33/14
f 14/14/49 15/20/44 59/37/18 55/30/11
f 17/10/50 18/18/46 58/35/16 53/26/7
f 20/6/51 11/16/48 57/33/14 51/22/3
f 13/2/43 14/14/49 55/30/11 56/29/10
f 16/11/45 17/10/50 53/26/7 54/25/6
f 19/7/47 20/6/51 51/22/3 52/21/2
